# xmcd
#
# Track frame offsets: 
#        150
#        31828
#        58050
#        99830
#        124177
#        158925
#        182915
#        207407
#        235796
#        249322
#        264494
#
# Disc length: 3921 seconds
#
# Revision: 2
# Processed by: cddbd v1.4PL0 Copyright (c) Steve Scherf et al.
# Submitted via: ExactAudioCopy v0.95a3
#
DISCID=900f4f0b
DTITLE=Dave Matthews - Live at Luther College
DYEAR=1900
DGENRE=
TTITLE0=Typical Situation
TTITLE1=Stream
TTITLE2=Warehouse
TTITLE3=Christmas Song
TTITLE4=Seek Up
TTITLE5=Say Goodbye
TTITLE6=Ants Marching
TTITLE7=Little Thing
TTITLE8=Halloween
TTITLE9=Granny
TTITLE10=Two Step
EXTD=
EXTT0=
EXTT1=
EXTT2=
EXTT3=
EXTT4=
EXTT5=
EXTT6=
EXTT7=
EXTT8=
EXTT9=
EXTT10=
PLAYORDER=
